<svg xmlns="http://www.w3.org/2000/svg" width="128" height="128" viewBox="0 0 128 128">
  <rect x="10" y="14" width="108" height="100" rx="12" fill="#2b2b2b"/>
  <rect x="22" y="28" width="84" height="72" rx="4" fill="#f4f0e8"/>
  <g stroke="#c8c0b0" stroke-width="1">
    <path d="M34 28v72M46 28v72M58 28v72M70 28v72M82 28v72M94 28v72"/>
    <path d="M22 40h84M22 52h84M22 64h84M22 76h84M22 88h84"/>
  </g>
  <path d="M38 46l14 14 14-14 8 8-14 14 14 14-8 8-14-14-14 14-8-8 14-14-14-14z" fill="#7cc7ff"/>
  <path d="M80 44h14v14H80zM80 66h14v14H80z" fill="#ffcc66"/>
</svg>
